<svg id="Capa_1" data-name="Capa 1" xmlns="http://www.w3.org/2000/svg" viewBox="0 0 788 522"><path d="M700.1,296.51c0-69.49,40.54-69.53,40.54-144.29C740.64,59.52,689.06.46,561.22.46H225.88C98,.46,46.46,59.52,46.46,152.22,46.46,227,87,227,87,296.51S.1,521.54.1,521.54H122l67.3-116.13A94.51,94.51,0,0,1,365.6,443.36v17.28a0,0,0,0,1,0,0v60.87h55.9V460.67a0,0,0,0,1,0,0V443.36a94.51,94.51,0,0,1,176.33-37.95l67.3,116.13H787S700.1,366,700.1,296.51ZM550.75,212.78H236.35c-48.59,0-84.48-9-84.48-59.06,0-49.34,35.89-56.82,84.48-56.82h314.4c48.59,0,84.48,7.48,84.48,56.82C635.23,203.81,599.34,212.78,550.75,212.78Z"/></svg>